<svg width="100" height="100" viewBox="0 0 100 100" xmlns="http://www.w3.org/2000/svg">
  <!-- Gear Teeth: 8 rectangles rotated around the center -->
  <rect x="47" y="20" width="6" height="10" fill="black" />
  <rect x="47" y="20" width="6" height="10" fill="black" transform="rotate(45 50 50)"/>
  <rect x="47" y="20" width="6" height="10" fill="black" transform="rotate(90 50 50)"/>
  <rect x="47" y="20" width="6" height="10" fill="black" transform="rotate(135 50 50)"/>
  <rect x="47" y="20" width="6" height="10" fill="black" transform="rotate(180 50 50)"/>
  <rect x="47" y="20" width="6" height="10" fill="black" transform="rotate(225 50 50)"/>
  <rect x="47" y="20" width="6" height="10" fill="black" transform="rotate(270 50 50)"/>
  <rect x="47" y="20" width="6" height="10" fill="black" transform="rotate(315 50 50)"/>

  <!-- Central white circle with a black outline -->
  <circle cx="50" cy="50" r="20" fill="white" stroke="black" stroke-width="2" />

  <!-- Play triangle in the center -->
  <polygon points="45,40 45,60 60,50" fill="black" />
</svg>
